# xmcd
#
# Track frame offsets: 
#        200
#        11847
#        24350
#        35190
#        47115
#        59217
#        71787
#        84947
#        94175
#        105772
#        117637
#        128120
#        138512
#        148845
#        158705
#        169677
#        180055
#        190997
#        201102
#        210937
#        222272
#        233622
#
# Disc length: 3234 seconds
#
# Revision: 0
# Processed by: cddbd v1.4PL0 Copyright (c) Steve Scherf et al.
# Submitted via: ExactAudioCopy v0.90b4
#
DISCID=380ca016
DTITLE=Leadbelly - Party Songs - Sings and Plays
DYEAR=1995
DGENRE=Blues
TTITLE0=You Can't Lose Me Cholly
TTITLE1=Little Sally Walker
TTITLE2=Skip To My Lou
TTITLE3=Christmas Song
TTITLE4=Ha! Ha! This Away
TTITLE5=Redbird
TTITLE6=More Yet-How Old Are You? Green Grass Growing All Around
TTITLE7=Skip To My Lou-It's Almost Day
TTITLE8=Little Children's Blues
TTITLE9=Little Sally Walker-Ha! Ha! This A-Way Red Bird
TTITLE10=What Are Little Boys Made Of?-All For You-Polly, Polly, Polly
TTITLE10=Wee
TTITLE11=How Do You Kow? Don't Mind The Weather
TTITLE12=Alabama Bound
TTITLE13=Haul Away joe
TTITLE14=Stewball
TTITLE15=Don't Lie, Buddy
TTITLE16=Yellow Gal
TTITLE17=Midnight Special
TTITLE18=Take This Hammer
TTITLE19=I've Got A Pretty Flower
TTITLE20=Old Man
TTITLE21=Corn Bread
EXTD=
EXTT0=
EXTT1=
EXTT2=
EXTT3=
EXTT4=
EXTT5=
EXTT6=
EXTT7=
EXTT8=
EXTT9=
EXTT10=
EXTT11=
EXTT12=
EXTT13=
EXTT14=
EXTT15=
EXTT16=
EXTT17=
EXTT18=
EXTT19=
EXTT20=
EXTT21=
PLAYORDER=
